#N canvas 94 72 629 404 10;
#N canvas -8 -8 1366 695 gui 0;
#X obj 101 101 cnv 15 398 348 empty empty EWI_Configuration 20 12 0
14 -233017 -66577 0;
#X obj 126 160 hsl 128 15 0 127 0 0 empty empty BreathGain -2 -8 0
10 -262144 -1 -1 6400 1;
#X floatatom 259 160 5 0 0 0 - - -;
#X obj 126 193 hsl 128 15 0 127 0 0 empty empty BiteGain -2 -8 0 10
-262144 -1 -1 6400 1;
#X floatatom 259 193 5 0 0 0 - - -;
#X obj 126 226 hsl 128 15 0 127 0 0 empty empty BiteACGain -2 -8 0
10 -262144 -1 -1 6400 1;
#X floatatom 259 226 5 0 0 0 - - -;
#X obj 126 259 hsl 128 15 0 127 0 0 empty empty PitchBendGain -2 -8
0 10 -262144 -1 -1 6400 1;
#X floatatom 259 259 5 0 0 0 - - -;
#X obj 126 292 hsl 128 15 0 15 0 0 empty empty KeyDelay -2 -8 0 10
-262144 -1 -1 5927 1;
#X floatatom 259 292 5 0 0 0 - - -;
#X obj 843 170 ctlout;
#X obj 843 146 unpack f f f;
#X msg 951 123 2 99 1 \;;
#X msg 897 123 2 98 1;
#X obj 14 342 i;
#X obj 55 12 loadbang;
#X obj 620 11 r defaultsbang;
#X msg 598 41 64;
#X msg 637 40 7;
#X obj 82 54 s defaultsbang;
#X obj 55 73 s editablebang;
#X floatatom 268 357 5 0 0 0 - - -;
#X obj 126 324 hsl 128 15 0 127 0 0 empty empty Transpose -2 -8 0 10
-262144 -1 -1 6400 1;
#X floatatom 259 324 5 0 0 0 - - -;
#X floatatom 239 389 5 0 0 0 - - -;
#X obj 116 360 hradio 10 1 0 15 empty empty Midi_Channel 0 -8 0 10
-262144 -1 -1 0;
#X obj 32 429 + 1;
#X obj 143 389 hradio 15 1 0 6 empty empty Fingering 0 -8 0 10 -262144
-1 -1 0;
#X msg 677 42 0;
#X obj 152 410 cnv 15 100 15 empty fingerlabel Standard 3 8 0 10 -233017
-1 0;
#X obj 68 486 sel 0 1 2 3 4 5;
#X msg 68 521 Standard;
#X msg 79 543 Saxophone;
#X msg 68 626 \; fingerlabel label \$1;
#X obj 68 606 list;
#X msg 91 567 Flute;
#X msg 150 522 Oboe;
#X msg 158 543 EVI-1;
#X msg 164 567 EVI-2;
#X obj 316 160 hsl 128 15 0 127 0 0 empty empty BreathCC1 -2 -8 0 10
-262144 -1 -1 200 1;
#X floatatom 449 160 5 0 0 0 - - -;
#X obj 316 193 hsl 128 15 0 127 0 0 empty empty BreathCC2 -2 -8 0 10
-262144 -1 -1 12700 1;
#X floatatom 449 193 5 0 0 0 - - -;
#X obj 316 226 hsl 128 15 0 127 0 0 empty empty BiteCC1 -2 -8 0 10
-262144 -1 -1 12600 1;
#X floatatom 449 226 5 0 0 0 - - -;
#X obj 316 259 hsl 128 15 0 127 0 0 empty empty BiteCC2 -2 -8 0 10
-262144 -1 -1 1600 1;
#X floatatom 449 259 5 0 0 0 - - -;
#X obj 316 292 hsl 128 15 0 15 0 0 empty empty Velocity -2 -8 0 10
-262144 -1 -1 0 1;
#X floatatom 449 292 5 0 0 0 - - -;
#X obj 316 324 hsl 128 15 0 127 0 0 empty empty PitchBendUPctl -2 -8
0 10 -262144 -1 -1 12700 1;
#X floatatom 449 324 5 0 0 0 - - -;
#X obj 316 356 hsl 128 15 0 127 0 0 empty empty PitchBendDOWNctl -2
-8 0 10 -262144 -1 -1 12700 1;
#X floatatom 449 356 5 0 0 0 - - -;
#X msg 562 162 2;
#X msg 566 203 127;
#X msg 571 237 126;
#X msg 566 267 16;
#X msg 563 312 0;
#X msg 559 346 127;
#X text 872 21 Transpose;
#X obj 843 101 t f b b;
#X msg 843 122 \$1 6 1;
#X obj 346 119 bng 15 250 50 0 defaultsbang empty RestoreDefaults 17
7 0 10 -262144 -1 -1;
#X obj 843 81 spigot;
#X obj 55 33 t b b b;
#X obj 177 54 s nonbang;
#X obj 843 40 r nonbang;
#X msg 843 61 0;
#X obj 904 40 r editablebang;
#X msg 904 61 1;
#X obj 1986 414 tgl 15 0 empty empty empty 17 7 0 10 -262144 -1 -1
0 1;
#X obj 843 350 ctlout;
#X obj 843 326 unpack f f f;
#X obj 843 281 t f b b;
#X msg 843 302 \$1 6 1;
#X obj 843 261 spigot;
#X obj 843 220 r nonbang;
#X msg 843 241 0;
#X obj 904 220 r editablebang;
#X msg 904 241 1;
#X obj 1033 170 ctlout;
#X obj 1033 146 unpack f f f;
#X obj 1033 101 t f b b;
#X msg 1033 122 \$1 6 1;
#X obj 1033 81 spigot;
#X obj 1033 40 r nonbang;
#X msg 1033 61 0;
#X obj 1094 40 r editablebang;
#X msg 1094 61 1;
#X obj 1033 350 ctlout;
#X obj 1033 326 unpack f f f;
#X obj 1033 281 t f b b;
#X msg 1033 302 \$1 6 1;
#X obj 1033 261 spigot;
#X obj 1033 220 r nonbang;
#X msg 1033 241 0;
#X obj 1094 220 r editablebang;
#X msg 1094 241 1;
#X obj 1213 170 ctlout;
#X obj 1213 146 unpack f f f;
#X msg 1321 123 2 99 1 \;;
#X obj 1213 101 t f b b;
#X msg 1213 122 \$1 6 1;
#X obj 1213 81 spigot;
#X obj 1213 40 r nonbang;
#X msg 1213 61 0;
#X obj 1274 40 r editablebang;
#X msg 1274 61 1;
#X obj 1213 350 ctlout;
#X obj 1213 326 unpack f f f;
#X msg 1321 303 2 99 1 \;;
#X obj 1213 281 t f b b;
#X msg 1213 302 \$1 6 1;
#X obj 1213 261 spigot;
#X obj 1213 220 r nonbang;
#X msg 1213 241 0;
#X obj 1274 220 r editablebang;
#X msg 1274 241 1;
#X obj 1393 170 ctlout;
#X obj 1393 146 unpack f f f;
#X msg 1501 123 2 99 1 \;;
#X obj 1393 101 t f b b;
#X msg 1393 122 \$1 6 1;
#X obj 1393 81 spigot;
#X obj 1393 40 r nonbang;
#X msg 1393 61 0;
#X obj 1454 40 r editablebang;
#X msg 1454 61 1;
#X obj 1393 350 ctlout;
#X obj 1393 326 unpack f f f;
#X msg 1501 303 2 99 1 \;;
#X obj 1393 281 t f b b;
#X msg 1393 302 \$1 6 1;
#X obj 1393 261 spigot;
#X obj 1393 220 r nonbang;
#X msg 1393 241 0;
#X obj 1454 220 r editablebang;
#X msg 1454 241 1;
#X obj 843 530 ctlout;
#X obj 843 506 unpack f f f;
#X msg 897 483 2 98 1;
#X obj 843 461 t f b b;
#X msg 843 482 \$1 6 1;
#X obj 843 441 spigot;
#X obj 843 400 r nonbang;
#X msg 843 421 0;
#X obj 904 400 r editablebang;
#X msg 904 421 1;
#X obj 1033 530 ctlout;
#X obj 1033 506 unpack f f f;
#X obj 1033 461 t f b b;
#X msg 1033 482 \$1 6 1;
#X obj 1033 441 spigot;
#X obj 1033 400 r nonbang;
#X msg 1033 421 0;
#X obj 1094 400 r editablebang;
#X msg 1094 421 1;
#X obj 1213 530 ctlout;
#X obj 1213 506 unpack f f f;
#X msg 1321 483 2 99 1 \;;
#X obj 1213 461 t f b b;
#X msg 1213 482 \$1 6 1;
#X obj 1213 441 spigot;
#X obj 1213 400 r nonbang;
#X msg 1213 421 0;
#X obj 1274 400 r editablebang;
#X msg 1274 421 1;
#X obj 1393 530 ctlout;
#X obj 1393 506 unpack f f f;
#X msg 1501 483 2 99 1 \;;
#X obj 1393 461 t f b b;
#X msg 1393 482 \$1 6 1;
#X obj 1393 441 spigot;
#X obj 1393 400 r nonbang;
#X msg 1393 421 0;
#X obj 1454 400 r editablebang;
#X msg 1454 421 1;
#X obj 1573 170 ctlout;
#X obj 1573 146 unpack f f f;
#X msg 1681 123 2 99 1 \;;
#X obj 1573 101 t f b b;
#X msg 1573 122 \$1 6 1;
#X obj 1573 81 spigot;
#X obj 1573 40 r nonbang;
#X msg 1573 61 0;
#X obj 1634 40 r editablebang;
#X msg 1634 61 1;
#X obj 1573 350 ctlout;
#X obj 1573 326 unpack f f f;
#X msg 1681 303 2 99 1 \;;
#X obj 1573 281 t f b b;
#X msg 1573 302 \$1 6 1;
#X obj 1573 261 spigot;
#X obj 1573 220 r nonbang;
#X msg 1573 241 0;
#X obj 1634 220 r editablebang;
#X msg 1634 241 1;
#X obj 1573 570 ctlout;
#X obj 1573 546 unpack f f f;
#X obj 1573 441 spigot;
#X obj 1573 400 r nonbang;
#X msg 1573 421 0;
#X obj 1634 400 r editablebang;
#X msg 1634 421 1;
#X text 872 201 BreathGain;
#X obj 925 327 print BreathGain;
#X msg 951 303 0 99 1 \;;
#X msg 896 303 0 98 1;
#X text 872 381 BiteGain;
#X obj 925 507 print BiteGain;
#X obj 925 147 print Transpose;
#X msg 951 483 0 99 1 \;;
#X text 1062 21 BiteACGain;
#X msg 1141 123 0 99 1 \;;
#X msg 1087 123 2 98 1;
#X text 1062 201 PitchBendGain;
#X msg 1141 303 0 99 1;
#X msg 1087 303 3 98 1;
#X obj 1082 351 print PitchBendGain;
#X text 1062 381 KeyDelay;
#X msg 1141 483 0 99 1 \;;
#X msg 1087 483 4 98 1;
#X obj 1115 507 print KeyDelay;
#X text 1242 21 Fingering;
#X obj 223 603 print Fingering;
#X obj 1265 170 print FingerSysNo;
#X msg 1267 123 1 98 1;
#X text 1242 201 BreathCC1;
#X msg 1267 303 4 98 1;
#X obj 1295 327 print BreathCC1;
#X text 1242 381 BreathCC2;
#X msg 1267 483 5 98 1;
#X obj 1295 507 print BreathCC2;
#X text 1422 21 BiteCC1;
#X msg 1447 123 7 98 1;
#X obj 1475 147 print BiteCC1;
#X text 1423 201 BiteCC2;
#X obj 1476 327 print BiteCC2;
#X msg 1447 303 8 98 1;
#X text 1422 381 Velocity;
#X obj 1475 507 print Velocity;
#X msg 1447 483 3 98 1;
#X text 1602 21 PitchBendUp;
#X msg 1627 123 9 98 1;
#X obj 1655 147 print PitchBendUPCtl;
#X obj 1655 327 print PitchBendDOWNCtl;
#X text 1602 201 PitchBendDown;
#X msg 1627 303 10 98 1;
#X text 1602 381 MidiChannel;
#X obj 1573 462 t f f f;
#X obj 1681 483 + 1;
#X obj 1627 483 + 1;
#X obj 1655 547 print MIDIChannel;
#X msg 1681 523 2 99 \$1 \;;
#X msg 1627 523 0 98 \$1;
#X obj 1573 503 pack f f;
#X msg 1573 522 \$1 6 \$2;
#X obj 260 512 s midichan;
#X obj 1649 443 r midichan;
#X obj 1733 216 r pbd;
#X obj 1729 42 r pbu;
#X obj 566 465 s pbd;
#X obj 435 478 s pbu;
#X obj 390 421 cnv 15 100 15 empty empty D.Sprinkle 20 12 0 14 -233017
-66577 0;
#X obj 1095 167 print BiteACGain;
#X connect 1 0 2 0;
#X connect 1 0 76 0;
#X connect 3 0 4 0;
#X connect 3 0 144 0;
#X connect 5 0 6 0;
#X connect 5 0 85 0;
#X connect 7 0 8 0;
#X connect 7 0 94 0;
#X connect 9 0 15 0;
#X connect 12 0 11 0;
#X connect 12 1 11 1;
#X connect 12 2 11 2;
#X connect 13 0 12 0;
#X connect 13 0 211 0;
#X connect 14 0 12 0;
#X connect 14 0 211 0;
#X connect 15 0 10 0;
#X connect 15 0 153 0;
#X connect 16 0 65 0;
#X connect 17 0 18 0;
#X connect 17 0 19 0;
#X connect 17 0 29 0;
#X connect 17 0 54 0;
#X connect 17 0 59 0;
#X connect 17 0 58 0;
#X connect 17 0 57 0;
#X connect 17 0 56 0;
#X connect 17 0 55 0;
#X connect 18 0 1 0;
#X connect 18 0 7 0;
#X connect 18 0 5 0;
#X connect 18 0 3 0;
#X connect 18 0 23 0;
#X connect 19 0 9 0;
#X connect 23 0 24 0;
#X connect 23 0 64 0;
#X connect 26 0 27 0;
#X connect 26 0 258 0;
#X connect 27 0 22 0;
#X connect 28 0 25 0;
#X connect 28 0 31 0;
#X connect 28 0 104 0;
#X connect 29 0 28 0;
#X connect 29 0 26 0;
#X connect 29 0 48 0;
#X connect 31 0 32 0;
#X connect 31 1 33 0;
#X connect 31 2 36 0;
#X connect 31 3 37 0;
#X connect 31 4 38 0;
#X connect 31 5 39 0;
#X connect 32 0 35 0;
#X connect 32 0 225 0;
#X connect 33 0 35 0;
#X connect 33 0 225 0;
#X connect 35 0 34 0;
#X connect 36 0 35 0;
#X connect 36 0 225 0;
#X connect 37 0 35 0;
#X connect 37 0 225 0;
#X connect 38 0 35 0;
#X connect 38 0 225 0;
#X connect 39 0 35 0;
#X connect 39 0 225 0;
#X connect 40 0 41 0;
#X connect 40 0 114 0;
#X connect 42 0 43 0;
#X connect 42 0 163 0;
#X connect 44 0 45 0;
#X connect 44 0 124 0;
#X connect 46 0 47 0;
#X connect 46 0 134 0;
#X connect 48 0 173 0;
#X connect 50 0 51 0;
#X connect 50 0 262 0;
#X connect 52 0 53 0;
#X connect 52 0 263 0;
#X connect 54 0 40 0;
#X connect 55 0 42 0;
#X connect 56 0 44 0;
#X connect 57 0 46 0;
#X connect 58 0 48 0;
#X connect 59 0 50 0;
#X connect 59 0 52 0;
#X connect 61 0 62 0;
#X connect 61 1 14 0;
#X connect 61 2 13 0;
#X connect 62 0 12 0;
#X connect 62 0 211 0;
#X connect 64 0 61 0;
#X connect 65 0 21 0;
#X connect 65 1 20 0;
#X connect 65 2 66 0;
#X connect 67 0 68 0;
#X connect 68 0 64 1;
#X connect 69 0 70 0;
#X connect 70 0 64 1;
#X connect 73 0 72 0;
#X connect 73 1 72 1;
#X connect 73 2 72 2;
#X connect 74 0 75 0;
#X connect 74 1 208 0;
#X connect 74 2 207 0;
#X connect 75 0 73 0;
#X connect 75 0 206 0;
#X connect 76 0 74 0;
#X connect 77 0 78 0;
#X connect 78 0 76 1;
#X connect 79 0 80 0;
#X connect 80 0 76 1;
#X connect 82 0 81 0;
#X connect 82 1 81 1;
#X connect 82 2 81 2;
#X connect 83 0 84 0;
#X connect 83 1 215 0;
#X connect 83 2 214 0;
#X connect 84 0 82 0;
#X connect 84 0 265 0;
#X connect 85 0 83 0;
#X connect 86 0 87 0;
#X connect 87 0 85 1;
#X connect 88 0 89 0;
#X connect 89 0 85 1;
#X connect 91 0 90 0;
#X connect 91 1 90 1;
#X connect 91 2 90 2;
#X connect 92 0 93 0;
#X connect 92 1 218 0;
#X connect 92 2 217 0;
#X connect 93 0 91 0;
#X connect 93 0 219 0;
#X connect 94 0 92 0;
#X connect 95 0 96 0;
#X connect 96 0 94 1;
#X connect 97 0 98 0;
#X connect 98 0 94 1;
#X connect 100 0 99 0;
#X connect 100 1 99 1;
#X connect 100 2 99 2;
#X connect 101 0 100 0;
#X connect 101 0 226 0;
#X connect 102 0 103 0;
#X connect 102 1 227 0;
#X connect 102 2 101 0;
#X connect 103 0 100 0;
#X connect 103 0 226 0;
#X connect 104 0 102 0;
#X connect 105 0 106 0;
#X connect 106 0 104 1;
#X connect 107 0 108 0;
#X connect 108 0 104 1;
#X connect 110 0 109 0;
#X connect 110 1 109 1;
#X connect 110 2 109 2;
#X connect 111 0 110 0;
#X connect 111 0 230 0;
#X connect 112 0 113 0;
#X connect 112 1 229 0;
#X connect 112 2 111 0;
#X connect 113 0 110 0;
#X connect 113 0 230 0;
#X connect 114 0 112 0;
#X connect 115 0 116 0;
#X connect 116 0 114 1;
#X connect 117 0 118 0;
#X connect 118 0 114 1;
#X connect 120 0 119 0;
#X connect 120 1 119 1;
#X connect 120 2 119 2;
#X connect 121 0 120 0;
#X connect 121 0 236 0;
#X connect 122 0 123 0;
#X connect 122 1 235 0;
#X connect 122 2 121 0;
#X connect 123 0 120 0;
#X connect 123 0 236 0;
#X connect 124 0 122 0;
#X connect 125 0 126 0;
#X connect 126 0 124 1;
#X connect 127 0 128 0;
#X connect 128 0 124 1;
#X connect 130 0 129 0;
#X connect 130 1 129 1;
#X connect 130 2 129 2;
#X connect 131 0 130 0;
#X connect 131 0 238 0;
#X connect 132 0 133 0;
#X connect 132 1 239 0;
#X connect 132 2 131 0;
#X connect 133 0 130 0;
#X connect 133 0 238 0;
#X connect 134 0 132 0;
#X connect 135 0 136 0;
#X connect 136 0 134 1;
#X connect 137 0 138 0;
#X connect 138 0 134 1;
#X connect 140 0 139 0;
#X connect 140 1 139 1;
#X connect 140 2 139 2;
#X connect 141 0 140 0;
#X connect 141 0 210 0;
#X connect 142 0 143 0;
#X connect 142 1 141 0;
#X connect 142 2 212 0;
#X connect 143 0 140 0;
#X connect 143 0 210 0;
#X connect 144 0 142 0;
#X connect 145 0 146 0;
#X connect 146 0 144 1;
#X connect 147 0 148 0;
#X connect 148 0 144 1;
#X connect 150 0 149 0;
#X connect 150 1 149 1;
#X connect 150 2 149 2;
#X connect 151 0 152 0;
#X connect 151 1 222 0;
#X connect 151 2 221 0;
#X connect 152 0 150 0;
#X connect 152 0 223 0;
#X connect 153 0 151 0;
#X connect 154 0 155 0;
#X connect 155 0 153 1;
#X connect 156 0 157 0;
#X connect 157 0 153 1;
#X connect 159 0 158 0;
#X connect 159 1 158 1;
#X connect 159 2 158 2;
#X connect 160 0 159 0;
#X connect 160 0 233 0;
#X connect 161 0 162 0;
#X connect 161 1 232 0;
#X connect 161 2 160 0;
#X connect 162 0 159 0;
#X connect 162 0 233 0;
#X connect 163 0 161 0;
#X connect 164 0 165 0;
#X connect 165 0 163 1;
#X connect 166 0 167 0;
#X connect 167 0 163 1;
#X connect 169 0 168 0;
#X connect 169 1 168 1;
#X connect 169 2 168 2;
#X connect 170 0 169 0;
#X connect 170 0 241 0;
#X connect 171 0 172 0;
#X connect 171 1 242 0;
#X connect 171 2 170 0;
#X connect 172 0 169 0;
#X connect 172 0 241 0;
#X connect 173 0 171 0;
#X connect 174 0 175 0;
#X connect 175 0 173 1;
#X connect 176 0 177 0;
#X connect 177 0 173 1;
#X connect 179 0 178 0;
#X connect 179 1 178 1;
#X connect 179 2 178 2;
#X connect 180 0 179 0;
#X connect 180 0 245 0;
#X connect 181 0 182 0;
#X connect 181 1 244 0;
#X connect 181 2 180 0;
#X connect 182 0 179 0;
#X connect 182 0 245 0;
#X connect 183 0 181 0;
#X connect 184 0 185 0;
#X connect 185 0 183 1;
#X connect 186 0 187 0;
#X connect 187 0 183 1;
#X connect 189 0 188 0;
#X connect 189 1 188 1;
#X connect 189 2 188 2;
#X connect 190 0 189 0;
#X connect 190 0 246 0;
#X connect 191 0 192 0;
#X connect 191 1 248 0;
#X connect 191 2 190 0;
#X connect 192 0 189 0;
#X connect 192 0 246 0;
#X connect 193 0 191 0;
#X connect 194 0 195 0;
#X connect 195 0 193 1;
#X connect 196 0 197 0;
#X connect 197 0 193 1;
#X connect 199 0 198 0;
#X connect 199 1 198 1;
#X connect 199 2 198 2;
#X connect 200 0 250 0;
#X connect 201 0 202 0;
#X connect 202 0 200 1;
#X connect 203 0 204 0;
#X connect 204 0 200 1;
#X connect 207 0 73 0;
#X connect 207 0 206 0;
#X connect 208 0 73 0;
#X connect 208 0 206 0;
#X connect 212 0 140 0;
#X connect 212 0 210 0;
#X connect 214 0 82 0;
#X connect 214 0 265 0;
#X connect 215 0 82 0;
#X connect 215 0 265 0;
#X connect 217 0 91 0;
#X connect 217 0 219 0;
#X connect 218 0 91 0;
#X connect 218 0 219 0;
#X connect 221 0 150 0;
#X connect 221 0 223 0;
#X connect 222 0 150 0;
#X connect 222 0 223 0;
#X connect 227 0 100 0;
#X connect 227 0 226 0;
#X connect 229 0 110 0;
#X connect 229 0 230 0;
#X connect 232 0 159 0;
#X connect 232 0 233 0;
#X connect 235 0 120 0;
#X connect 235 0 236 0;
#X connect 239 0 130 0;
#X connect 239 0 238 0;
#X connect 242 0 169 0;
#X connect 242 0 241 0;
#X connect 244 0 179 0;
#X connect 244 0 245 0;
#X connect 248 0 189 0;
#X connect 248 0 246 0;
#X connect 250 0 256 0;
#X connect 250 1 252 0;
#X connect 250 2 251 0;
#X connect 251 0 254 0;
#X connect 252 0 256 1;
#X connect 252 0 255 0;
#X connect 254 0 199 0;
#X connect 254 0 253 0;
#X connect 255 0 199 0;
#X connect 255 0 253 0;
#X connect 256 0 257 0;
#X connect 257 0 199 0;
#X connect 257 0 253 0;
#X connect 259 0 200 0;
#X connect 260 0 193 0;
#X connect 261 0 183 0;
#X coords 0 -1 1 1 400 350 2 100 100;
#X restore 34 25 pd gui;
#N canvas 596 65 633 506 help 1;
#X obj 6 6 cnv 15 83 58 empty empty Right-Click 1 10 0 12 -233017 -66577
0;
#X obj 6 26 cnv 15 83 15 empty empty select"Open" 1 10 0 12 -233017
-66577 0;
#X obj 6 46 cnv 15 83 15 empty empty forHelp 1 10 0 12 -233017 -66577
0;
#X text 113 14 This tool is an alternative to the ARIA EWI-USB configuration
tools.;
#X text 81 144 It cannot read what your device's current settings are
\, but it can set all the setting on your device \, as well as restore
them to the defaults.;
#X text 86 201 To make the Velocity variable or "dynamic \, " set it
to 0 Otherwise \, it will be the value you set it for every note output.
;
#X text 87 256 For the Pitch Bend Up/Down and breath->aftertouch routing
\, set to 127 (default);
#X text 85 303 BiteCC2's routing is actually null (0) by default \,
but I use 16 for everything. To nullify any of the midi ctl outs \,
set to 0;
#X text 93 366 Transpose set to 64 is Concert Pitch \, and is adjusted
in Semitones up or down from there. Key Delay is milliseconds before
registering keys->notes. A higher value will mitigate crossing tones
\, but a lower value will give less latency. Default is 7 \, I like
4;
#X text 97 446 A common setting is to turn PitchBendGain all the way
down if you don't want the right thumb sensors to do anything.;
#X text 88 81 Go to the Media tab > MIDI Settings \, and select your
EWI-USB as BOTH an input and output device.;
#X coords 0 -1 1 1 85 60 2 5 5;
#X restore 457 40 pd help;
